<?xml version="1.0" encoding="utf-8"?>
<!-- Generator: Adobe Illustrator 17.0.0, SVG Export Plug-In . SVG Version: 6.00 Build 0)  -->
<!DOCTYPE svg PUBLIC "-//W3C//DTD SVG 1.1//EN" "http://www.w3.org/Graphics/SVG/1.1/DTD/svg11.dtd">
<svg version="1.1" id="Layer_1" xmlns="http://www.w3.org/2000/svg" xmlns:xlink="http://www.w3.org/1999/xlink" x="0px" y="0px"
	 width="512px" height="512px" viewBox="0 0 512 512" enable-background="new 0 0 512 512" xml:space="preserve">
<path id="infinity-7-icon" fill="#0392D9" d="M256,90c44.341,0,86.027,17.267,117.38,48.62S422,211.659,422,256
	s-17.267,86.027-48.62,117.38S300.341,422,256,422c-44.34,0-86.026-17.267-117.38-48.62C107.268,342.026,90,300.341,90,256
	s17.268-86.026,48.62-117.38C169.974,107.267,211.66,90,256,90 M256,50C142.229,50,50,142.229,50,256s92.229,206,206,206
	s206-92.229,206-206S369.771,50,256,50L256,50z M322.112,192.849c-62.462,0-84.034,100.701-132.225,100.701
	c-20.274,0-32.43-15.298-32.43-37.55c0-22.254,12.155-37.55,32.43-37.55c15.895,0,27.031,10.808,38.814,24.825l15.575-19.806
	c-14.443-15.418-30.733-30.621-54.39-30.621c-34.056,0-57.178,27.148-57.178,63.151c0,36.002,23.122,63.152,57.178,63.152
	c62.554,0,87.094-100.702,132.225-100.702c20.274,0,32.43,15.296,32.43,37.55c0,22.252-12.155,37.55-32.43,37.55
	c-16.052,0-27.529-10.737-38.682-23.74L267.78,289.36c14.277,14.994,30.392,29.792,54.331,29.792
	c34.057,0,57.178-27.15,57.178-63.152C379.29,219.997,356.169,192.849,322.112,192.849z"/>
</svg>
