<?xml version="1.0" encoding="utf-8"?>
<!-- Generator: Adobe Illustrator 17.0.0, SVG Export Plug-In . SVG Version: 6.00 Build 0)  -->
<!DOCTYPE svg PUBLIC "-//W3C//DTD SVG 1.1//EN" "http://www.w3.org/Graphics/SVG/1.1/DTD/svg11.dtd">
<svg version="1.1" id="Layer_1" xmlns="http://www.w3.org/2000/svg" xmlns:xlink="http://www.w3.org/1999/xlink" x="0px" y="0px"
   width="400px" height="400px" viewBox="0 0 400 400" enable-background="new 0 0 400 400" xml:space="preserve">
<path id="note-19-icon" fill="#FFFFFF" d="M153.305,231.728h-56.35v-21.336h56.35V231.728z M360.938,90.513L246.749,204.645
  l-47.469-47.442L313.47,43.069L360.938,90.513z M272.092,214.395c0,13.93,0,24.964,0,30.212c0,46.062-56.867,27.608-56.867,27.608
  s17.412,55.527-25.54,55.527c-23.397,0-35.075,0-121.433,0V85.469h167.698l29.204-29.189H39.062v300.652H190.13
  c49.742,0,111.152-64.997,111.152-109.805V185.22L272.092,214.395z M186.26,171.566l46.067,46.041l-60.954,13.798L186.26,171.566z"
  />
</svg>
