<?xml version="1.0" encoding="utf-8"?>
<!-- Generator: Adobe Illustrator 17.0.0, SVG Export Plug-In . SVG Version: 6.00 Build 0)  -->
<!DOCTYPE svg PUBLIC "-//W3C//DTD SVG 1.1//EN" "http://www.w3.org/Graphics/SVG/1.1/DTD/svg11.dtd">
<svg version="1.1" id="Layer_1" xmlns="http://www.w3.org/2000/svg" xmlns:xlink="http://www.w3.org/1999/xlink" x="0px" y="0px"
	 width="400px" height="400px" viewBox="0 0 400 400" enable-background="new 0 0 400 400" xml:space="preserve">
<path id="note-19-icon" fill="#FFFFFF" d="M173.46,219.828h-44.095v-16.696h44.095V219.828z M335.938,109.323l-89.356,89.311
	l-37.146-37.125l89.357-89.313L335.938,109.323z M266.414,206.264c0,10.901,0,19.535,0,23.642c0,36.045-44.5,21.604-44.5,21.604
	s13.625,43.451-19.986,43.451c-18.309,0-27.447,0-95.024,0V105.376h131.228l22.853-22.841H84.062v235.268h118.214
	c38.924,0,86.979-50.862,86.979-85.925v-48.444L266.414,206.264z M199.248,172.749l36.049,36.028l-47.698,10.797L199.248,172.749z"
	/>
</svg>
