<?xml version="1.0" encoding="utf-8"?>
<!-- Generator: Adobe Illustrator 17.0.0, SVG Export Plug-In . SVG Version: 6.00 Build 0)  -->
<!DOCTYPE svg PUBLIC "-//W3C//DTD SVG 1.1//EN" "http://www.w3.org/Graphics/SVG/1.1/DTD/svg11.dtd">
<svg version="1.1" id="Layer_1" xmlns="http://www.w3.org/2000/svg" xmlns:xlink="http://www.w3.org/1999/xlink" x="0px" y="0px"
	 width="512px" height="512px" viewBox="0 0 512 512" enable-background="new 0 0 512 512" xml:space="preserve">
<path id="photo-camera-7-icon" fill="#888888" d="M257,201.004c-33.082,0-59.996,26.914-59.996,59.996s26.914,59.996,59.996,59.996
	s59.996-26.914,59.996-59.996S290.082,201.004,257,201.004z M387,50H125c-41.422,0-75,33.578-75,75v262c0,41.421,33.578,75,75,75
	h262c41.422,0,75-33.579,75-75V125C462,83.578,428.422,50,387,50z M257,365.996c-57.895,0-104.996-47.102-104.996-104.996
	S199.105,156.004,257,156.004S361.996,203.105,361.996,261S314.895,365.996,257,365.996z M410.277,146.278c0,6.627-5.373,12-12,12
	h-36.5c-6.627,0-12-5.373-12-12v-36.5c0-6.627,5.373-12,12-12h36.5c6.627,0,12,5.373,12,12V146.278z"/>
</svg>
